<svg xmlns="http://www.w3.org/2000/svg" viewBox="0 0 900 900">
<defs><linearGradient id="g" x1="0" y1="0" x2="1" y2="1"><stop stop-color="#292927"/><stop offset=".42" stop-color="#0d0d0c"/><stop offset=".72" stop-color="#232321"/><stop offset="1" stop-color="#080808"/></linearGradient><filter id="n"><feTurbulence baseFrequency=".015 .12" numOctaves="4" seed="21" result="t"/><feDisplacementMap in="SourceGraphic" in2="t" scale="7"/><feDiffuseLighting in="t" surfaceScale="2" diffuseConstant=".35" lighting-color="#999"><feDistantLight azimuth="220" elevation="50"/></feDiffuseLighting></filter></defs>
<path filter="url(#n)" fill="url(#g)" d="M300 105 165 155 35 285l125 125 92-72-24 470c132 43 312 43 444 0l-24-470 92 72 125-125-130-130-135-50-73-40c-16 55-138 55-154 0z"/>
<path fill="#050505" d="M373 65c16 55 138 55 154 0l35 20c-12 95-212 95-224 0z"/>
<text x="450" y="420" text-anchor="middle" fill="#d1d1ca" font-family="Arial,sans-serif" font-size="28" letter-spacing="8">UNASKED.</text>
<text x="450" y="452" text-anchor="middle" fill="#aaa9a1" font-family="monospace" font-size="13" letter-spacing="3">DROP 000 — SOCIAL EXPERIMENT</text>
<text x="450" y="770" text-anchor="middle" fill="#888780" font-family="monospace" font-size="11" letter-spacing="2">UNFORTUNATELY, YOU FOUND US.</text>
</svg>